<?xml version="1.0" encoding="UTF-8" standalone="no"?>
<svg width="74px" height="66px" viewBox="0 0 74 66" version="1.1" xmlns="http://www.w3.org/2000/svg" xmlns:xlink="http://www.w3.org/1999/xlink" xmlns:sketch="http://www.bohemiancoding.com/sketch/ns">
    <!-- Generator: Sketch 3.0.4 (8054) - http://www.bohemiancoding.com/sketch -->
    <title>noun_44038_cc</title>
    <desc>Created with Sketch.</desc>
    <defs></defs>
    <g id="Page-1" stroke="none" stroke-width="1" fill="none" fill-rule="evenodd" sketch:type="MSPage">
        <g id="noun_44038_cc" sketch:type="MSLayerGroup" fill="#0292A4">
            <path d="M7,65.937 L67,65.937 C70.618,65.937 73.562,62.993 73.562,59.375 L73.562,6.875 C73.562,3.257 70.618,0.313 67,0.313 L7,0.313 C3.382,0.313 0.438,3.257 0.438,6.875 L0.438,59.375 C0.438,62.993 3.382,65.937 7,65.937 L7,65.937 Z M7,2.188 L67,2.188 C69.585,2.188 71.688,4.29 71.688,6.876 L71.688,11.564 L2.312,11.564 L2.312,6.876 C2.312,4.29 4.414,2.188 7,2.188 L7,2.188 Z M2.312,13.438 L71.687,13.438 L71.687,59.375 C71.687,61.96 69.584,64.063 66.999,64.063 L7,64.063 C4.414,64.063 2.312,61.961 2.312,59.375 L2.312,13.438 L2.312,13.438 Z" id="Shape" sketch:type="MSShapeGroup"></path>
            <circle id="Oval" sketch:type="MSShapeGroup" cx="8.875" cy="6.875" r="1.875"></circle>
            <circle id="Oval" sketch:type="MSShapeGroup" cx="16.875" cy="6.875" r="1.875"></circle>
            <circle id="Oval" sketch:type="MSShapeGroup" cx="23.875" cy="6.875" r="1.875"></circle>
            <path d="M44.5,49.062 L29.5,49.062 C28.981,49.062 28.562,49.481 28.562,50 C28.562,50.519 28.981,50.938 29.5,50.938 L37.938,50.938 L37.938,53.75 C37.938,55.817 39.619,57.5 41.688,57.5 C43.756,57.5 45.438,55.817 45.438,53.75 L45.438,50 C45.438,49.481 45.018,49.062 44.5,49.062 L44.5,49.062 Z M41.688,55.625 C40.655,55.625 39.813,54.785 39.813,53.75 L39.813,50.938 L43.563,50.938 L43.563,53.75 C43.562,54.784 42.72,55.625 41.688,55.625 L41.688,55.625 Z" id="Shape" sketch:type="MSShapeGroup"></path>
            <path d="M25.087,45.038 C25.271,45.221 25.51,45.312 25.75,45.312 C25.99,45.312 26.229,45.221 26.413,45.038 L27.625,43.826 L28.837,45.038 C29.021,45.221 29.26,45.312 29.5,45.312 C29.74,45.312 29.979,45.221 30.163,45.038 C30.529,44.672 30.529,44.079 30.163,43.712 L28.95,42.5 L30.163,41.288 C30.529,40.922 30.529,40.329 30.163,39.962 C29.797,39.595 29.203,39.596 28.837,39.962 L27.625,41.174 L26.413,39.962 C26.047,39.596 25.453,39.596 25.087,39.962 C24.721,40.328 24.721,40.921 25.087,41.288 L26.299,42.5 L25.087,43.712 C24.721,44.078 24.721,44.671 25.087,45.038 L25.087,45.038 Z" id="Shape" sketch:type="MSShapeGroup"></path>
            <path d="M43.837,45.038 C44.02,45.221 44.26,45.312 44.5,45.312 C44.739,45.312 44.979,45.221 45.162,45.038 L46.375,43.826 L47.587,45.038 C47.77,45.221 48.01,45.312 48.25,45.312 C48.489,45.312 48.729,45.221 48.912,45.038 C49.279,44.672 49.279,44.079 48.912,43.712 L47.7,42.5 L48.912,41.288 C49.279,40.922 49.279,40.329 48.912,39.962 C48.547,39.596 47.953,39.596 47.587,39.962 L46.375,41.174 L45.162,39.962 C44.797,39.596 44.203,39.596 43.837,39.962 C43.471,40.328 43.471,40.921 43.837,41.288 L45.049,42.5 L43.837,43.712 C43.471,44.078 43.471,44.671 43.837,45.038 L43.837,45.038 Z" id="Shape" sketch:type="MSShapeGroup"></path>
        </g>
    </g>
</svg>