<?xml version="1.0" encoding="UTF-8" standalone="no"?>
<svg width="37px" height="41px" viewBox="0 0 37 41" version="1.1" xmlns="http://www.w3.org/2000/svg" xmlns:xlink="http://www.w3.org/1999/xlink" xmlns:sketch="http://www.bohemiancoding.com/sketch/ns">
    <!-- Generator: Sketch 3.3 (11970) - http://www.bohemiancoding.com/sketch -->
    <title>bitbucket</title>
    <desc>Created with Sketch.</desc>
    <defs></defs>
    <g id="Page-1" stroke="none" stroke-width="1" fill="none" fill-rule="evenodd" sketch:type="MSPage">
        <g id="Desktop-HD-2-Copy-2" sketch:type="MSArtboardGroup" transform="translate(-527.000000, -1427.000000)" fill="#FFFFFF">
            <g id="Rectangle-136-+-CONNECT-WITH-GITHUB-+-git_icon-Copy-2" sketch:type="MSLayerGroup" transform="translate(473.500000, 1394.000000)">
                <g id="bitbucket" transform="translate(54.000000, 33.000000)" sketch:type="MSShapeGroup">
                    <g id="Page-1">
                        <g id="iPad-Portrait">
                            <g id="bitbucket">
                                <path d="M17.9007513,7.67075352 C11.5682927,7.66064789 6.43650732,6.57530282 6.43867318,5.24597888 C6.44086829,3.9163662 11.5763122,2.84747888 17.9087708,2.85758451 C24.2411415,2.8674014 29.3727512,3.95274648 29.3707024,5.28235915 C29.3686537,6.61197183 24.233239,7.68085915 17.9007513,7.67075352 L17.9007513,7.67075352 L17.9007513,7.67075352 Z M17.9038537,25.2718803 C14.7607024,25.2718803 12.2125463,22.7578874 12.2125463,19.6574789 C12.2125463,16.5564929 14.7607024,14.0430775 17.9038537,14.0430775 C21.0470927,14.0430775 23.5951902,16.5564929 23.5951902,19.6574789 C23.5951902,22.7578874 21.0470927,25.2718803 17.9038537,25.2718803 L17.9038537,25.2718803 L17.9038537,25.2718803 Z M17.9040878,0 L17.9040878,0.000577464789 L17.9037367,0 C8.04787318,0 0,2.61418309 0,5.8595352 C0,6.71447183 2.14928781,18.9723169 3.00196098,23.8334155 C3.38414634,26.0136338 9.09512195,29.2099014 17.8992879,29.2099014 L17.9084194,29.1839155 L17.9084194,29.2099014 C26.712556,29.2099014 32.423678,26.0136338 32.8059219,23.8334155 C33.6585073,18.9723169 35.807678,6.71447183 35.807678,5.8595352 C35.807678,2.61418309 27.7597756,0 17.9040878,0 L17.9040878,0 L17.9040878,0 Z" id="Shape"></path>
                                <path d="M30.7720682,28.705486 C30.4998732,28.705486 30.2815317,28.8954718 30.2815317,28.8954718 C30.2815317,28.8954718 25.8725561,32.3397317 17.9038537,32.3400782 C9.93509269,32.3397894 5.52623415,28.8954718 5.52623415,28.8954718 C5.52623415,28.8954718 5.30798048,28.705486 5.03587317,28.705486 C4.71070244,28.705486 4.40247805,28.9208803 4.40247805,29.3961338 C4.40247805,29.4463732 4.40751219,29.4966126 4.41676098,29.5456972 C5.10102439,33.1588943 5.60098537,35.7225203 5.68879025,36.1126557 C6.2861561,38.7704662 11.5565268,40.7759148 17.9033853,40.7762323 L17.904322,40.7762323 C24.2513854,40.7759437 29.5217269,38.7704662 30.1190927,36.1126557 C30.2066049,35.7225203 30.7068001,33.1588943 31.3910926,29.5456972 C31.4001658,29.4966126 31.4054342,29.4463732 31.4054342,29.3961338 C31.4054342,28.9208803 31.0969463,28.705486 30.7720682,28.705486" id="Shape"></path>
                                <path d="M20.7506049,19.6557465 C20.7506049,21.2099929 19.4735999,22.4694437 17.8982633,22.4694437 C16.3230146,22.4694437 15.0460683,21.2099929 15.0460683,19.6557465 C15.0460683,18.1015 16.3230146,16.8420494 17.8982633,16.8420494 C19.4735999,16.8420494 20.7506049,18.1015 20.7506049,19.6557465" id="Shape"></path>
                            </g>
                        </g>
                    </g>
                </g>
            </g>
        </g>
    </g>
</svg>