<?xml version="1.0" encoding="UTF-8" standalone="no"?>
<svg width="44px" height="44px" viewBox="0 0 44 44" version="1.1" xmlns="http://www.w3.org/2000/svg" xmlns:xlink="http://www.w3.org/1999/xlink" xmlns:sketch="http://www.bohemiancoding.com/sketch/ns">
    <!-- Generator: Sketch 3.0.4 (8054) - http://www.bohemiancoding.com/sketch -->
    <title>noun_33127_cc</title>
    <desc>Created with Sketch.</desc>
    <defs></defs>
    <g id="Page-1" stroke="none" stroke-width="1" fill="none" fill-rule="evenodd" sketch:type="MSPage">
        <g id="48" sketch:type="MSArtboardGroup" transform="translate(-3.000000, -2.000000)" fill="#5B5B5B">
            <g id="noun_33127_cc" sketch:type="MSLayerGroup" transform="translate(3.000000, 2.000000)">
                <path d="M23.0072521,21.76825 L43.1222521,1.58325 C43.4832521,1.22025 43.4832521,0.63225 43.1182521,0.27025 C42.7552521,-0.08875 42.1672521,-0.09275 41.8052521,0.27425 L21.6962521,20.45325 L1.58725207,0.27425 C1.22425207,-0.09175 0.637252066,-0.08875 0.274252066,0.27025 C-0.0907479339,0.63325 -0.0907479339,1.22025 0.270252066,1.58325 L20.3852521,21.76825 L0.270252066,41.95425 C-0.0907479339,42.31725 -0.0907479339,42.90525 0.274252066,43.26725 C0.455252066,43.44725 0.691252066,43.53725 0.929252066,43.53725 C1.16725207,43.53725 1.40625207,43.44625 1.58725207,43.26325 L21.6962521,23.08425 L41.8052521,43.26325 C41.9862521,43.44625 42.2262521,43.53725 42.4632521,43.53725 C42.7012521,43.53725 42.9362521,43.44625 43.1182521,43.26725 C43.4832521,42.90425 43.4832521,42.31725 43.1222521,41.95425 L23.0072521,21.76825 L23.0072521,21.76825 Z" id="Shape" sketch:type="MSShapeGroup"></path>
            </g>
        </g>
    </g>
</svg>