<?xml version="1.0" encoding="UTF-8" standalone="no"?>
<svg width="30px" height="30px" viewBox="0 0 30 30" version="1.1" xmlns="http://www.w3.org/2000/svg" xmlns:xlink="http://www.w3.org/1999/xlink" xmlns:sketch="http://www.bohemiancoding.com/sketch/ns">
    <!-- Generator: Sketch 3.0.4 (8054) - http://www.bohemiancoding.com/sketch -->
    <title>32</title>
    <desc>Created with Sketch.</desc>
    <defs></defs>
    <g id="Page-1" stroke="none" stroke-width="1" fill="none" fill-rule="evenodd" sketch:type="MSPage">
        <g id="32" sketch:type="MSArtboardGroup" fill="#444444">
            <path d="M16.2552688,9.85467233 L16.2552688,15.5069782 L21.2925472,15.5069782 L21.2925472,17.7679005 L13.9998765,17.7679005 L13.9998765,9.85467233 L16.2552688,9.85467233 L16.2552688,9.85467233 Z M15.5182663,4 C12.3876489,4 9.32770218,5.25751942 7.25775787,7.29553155 L5.28265375,5.3156335 L4,12.3594951 L11.0268063,11.0737282 L9.02981598,9.07189078 C10.6461646,7.48846359 13.0796538,6.51213592 15.5182663,6.51213592 C20.4701162,6.51213592 24.484368,10.5361311 24.484368,15.5 C24.484368,20.4638689 20.4701162,24.4878641 15.5182663,24.4878641 C10.5806174,24.4878641 6.57561017,20.4867573 6.55272155,15.5425388 L4.05814044,16.0148204 C4.32690073,22.1271262 9.35454479,27 15.5182663,27 C21.8541259,27 26.9904213,21.8512937 26.9904213,15.5 C26.9904213,9.14870631 21.8541259,4 15.5182663,4 L15.5182663,4 Z" id="time-4-icon" sketch:type="MSShapeGroup"></path>
        </g>
    </g>
</svg>