<?xml version="1.0" encoding="UTF-8" standalone="no"?>
<svg width="30px" height="30px" viewBox="0 0 30 30" version="1.1" xmlns="http://www.w3.org/2000/svg" xmlns:xlink="http://www.w3.org/1999/xlink" xmlns:sketch="http://www.bohemiancoding.com/sketch/ns">
    <!-- Generator: Sketch 3.0.4 (8054) - http://www.bohemiancoding.com/sketch -->
    <title>80 - Spotlight</title>
    <desc>Created with Sketch.</desc>
    <defs></defs>
    <g id="Page-1" stroke="none" stroke-width="1" fill="none" fill-rule="evenodd" sketch:type="MSPage">
        <g id="80---Spotlight" sketch:type="MSArtboardGroup" fill="#444444">
            <path d="M24.125,18.3333333 C23.06125,18.3333333 22.14125,18.9 21.62375,19.75 L21.25,19.75 C18.97875,19.75 17.8575,18.6733333 16.44875,17.3133333 C15.81625,16.7183333 15.155,16.0666667 14.37875,15.5283333 C15.24125,14.9616667 15.93125,14.2816667 16.56375,13.6583333 C17.94375,12.3266667 19.03625,11.25 21.25,11.25 L21.62375,11.25 C22.1125,12.1 23.06125,12.6666667 24.125,12.6666667 C25.70625,12.6666667 27,11.3916667 27,9.83333333 C27,8.275 25.70625,7 24.125,7 C23.06125,7 22.14125,7.56666667 21.62375,8.41666667 L21.25,8.41666667 C17.8575,8.41666667 16.10375,10.1166667 14.55125,11.6466667 C13.1425,13.0066667 12.02125,14.0833333 9.75,14.0833333 L9.37625,14.0833333 C8.8875,13.2333333 7.93875,12.6666667 6.875,12.6666667 C5.29375,12.6666667 4,13.9416667 4,15.5 C4,17.0583333 5.29375,18.3333333 6.875,18.3333333 C7.93875,18.3333333 8.85875,17.7666667 9.37625,16.9166667 L9.75,16.9166667 C11.96375,16.9166667 13.05625,17.9933333 14.43625,19.325 C15.93125,20.77 17.8,22.5833333 21.25,22.5833333 L21.62375,22.5833333 C22.1125,23.4333333 23.06125,24 24.125,24 C25.70625,24 27,22.725 27,21.1666667 C27,19.6083333 25.70625,18.3333333 24.125,18.3333333 L24.125,18.3333333 Z M24.125,8.13333333 C25.07375,8.13333333 25.85,8.89833333 25.85,9.83333333 C25.85,10.7683333 25.07375,11.5333333 24.125,11.5333333 C23.17625,11.5333333 22.4,10.7683333 22.4,9.83333333 C22.4,8.89833333 23.17625,8.13333333 24.125,8.13333333 L24.125,8.13333333 Z M6.875,17.2 C5.92625,17.2 5.15,16.435 5.15,15.5 C5.15,14.565 5.92625,13.8 6.875,13.8 C7.82375,13.8 8.6,14.565 8.6,15.5 C8.6,16.435 7.82375,17.2 6.875,17.2 L6.875,17.2 Z M24.125,22.8666667 C23.17625,22.8666667 22.4,22.1016667 22.4,21.1666667 C22.4,20.2316667 23.17625,19.4666667 24.125,19.4666667 C25.07375,19.4666667 25.85,20.2316667 25.85,21.1666667 C25.85,22.1016667 25.07375,22.8666667 24.125,22.8666667 L24.125,22.8666667 Z" id="fork3-2" sketch:type="MSShapeGroup" transform="translate(15.500000, 15.500000) rotate(-90.000000) translate(-15.500000, -15.500000) "></path>
        </g>
    </g>
</svg>