<?xml version="1.0" encoding="UTF-8" standalone="no"?>
<svg width="28px" height="30px" viewBox="0 0 28 30" version="1.1" xmlns="http://www.w3.org/2000/svg" xmlns:xlink="http://www.w3.org/1999/xlink" xmlns:sketch="http://www.bohemiancoding.com/sketch/ns">
    <!-- Generator: Sketch 3.0.4 (8054) - http://www.bohemiancoding.com/sketch -->
    <title>Fill-50</title>
    <desc>Created with Sketch.</desc>
    <defs></defs>
    <g id="Page-1" stroke="none" stroke-width="1" fill="none" fill-rule="evenodd" sketch:type="MSPage">
        <path d="M13.9987108,0.8911628 C6.2688235,0.8911628 0,7.1591268 0,14.8915925 C0,21.0770494 4.0110501,26.3239876 9.5742656,28.1752415 C10.2747168,28.3041589 10.5299733,27.8718559 10.5299733,27.5005738 C10.5299733,27.1679669 10.517941,26.2878908 10.5110654,25.1198991 C6.6169005,25.9655973 5.7952669,23.2428618 5.7952669,23.2428618 C5.1584149,21.6253781 4.240523,21.194794 4.240523,21.194794 C2.9693975,20.3267501 4.3367814,20.3439391 4.3367814,20.3439391 C5.741981,20.4427758 6.4811075,21.7869546 6.4811075,21.7869546 C7.7298874,23.926124 9.7581878,23.3081799 10.5557568,22.9497895 C10.6829553,22.0456488 11.0447834,21.4285642 11.4444274,21.0787683 C8.3357991,20.7255346 5.0673133,19.5240245 5.0673133,14.1593417 C5.0673133,12.6312408 5.6130636,11.380742 6.5086098,10.4026886 C6.3642224,10.0485955 5.8837902,8.624488 6.6461217,6.6976025 C6.6461217,6.6976025 7.820989,6.3211637 10.4955953,8.1328829 C11.61202,7.8217623 12.8100924,7.6670614 14.0004297,7.6610452 C15.1899076,7.6670614 16.3871205,7.8217623 17.5052641,8.1328829 C20.1781516,6.3211637 21.3512999,6.6976025 21.3512999,6.6976025 C22.1153504,8.624488 21.6349182,10.0485955 21.4913902,10.4026886 C22.3886553,11.380742 22.9301084,12.6312408 22.9301084,14.1593417 C22.9301084,19.5377757 19.6564658,20.7212374 16.5383836,21.0675955 C17.040302,21.4998985 17.4880751,22.3541911 17.4880751,23.6596947 C17.4880751,25.5315753 17.4708862,27.0416278 17.4708862,27.5005738 C17.4708862,27.8752937 17.7235643,28.3110345 18.4334694,28.1743821 C23.9923877,26.3188309 28,21.0753305 28,14.8915925 C28,7.1591268 21.7311765,0.8911628 13.9987108,0.8911628" id="Fill-50" fill="#FFFFFF" sketch:type="MSShapeGroup"></path>
    </g>
</svg>