<?xml version="1.0" encoding="UTF-8" standalone="no"?>
<svg width="73px" height="73px" viewBox="0 0 73 73" version="1.1" xmlns="http://www.w3.org/2000/svg" xmlns:xlink="http://www.w3.org/1999/xlink" xmlns:sketch="http://www.bohemiancoding.com/sketch/ns">
    <!-- Generator: Sketch 3.3 (11970) - http://www.bohemiancoding.com/sketch -->
    <title>logo + stockroom 2 copy</title>
    <desc>Created with Sketch.</desc>
    <defs></defs>
    <g id="Page-1" stroke="none" stroke-width="1" fill="none" fill-rule="evenodd" sketch:type="MSPage">
        <g id="Desktop-HD-2-Copy" sketch:type="MSArtboardGroup" transform="translate(-127.000000, -42.000000)">
            <g id="logo-+-stockroom-2-copy" sketch:type="MSLayerGroup" transform="translate(127.000000, 42.000000)">
                <g id="logo" sketch:type="MSShapeGroup">
                    <rect id="Rectangle-27" stroke="#FFFFFF" stroke-width="5" x="0" y="0" width="73" height="73" rx="2"></rect>
                    <path d="M16.7634192,38.6649432 L20.0955415,42.0381042 L20.0592646,50.1423768 L20.0592646,50.1485813 C20.0592646,50.2110396 20.1070842,50.2693615 20.1128555,50.3301653 C20.1206881,50.4137188 20.139651,50.5014085 20.1557283,50.5820666 C20.1639731,50.6192934 20.1878829,50.6527975 20.1977766,50.6883698 C20.2245721,50.790123 20.2546655,50.8935307 20.2950649,50.9886659 C20.3028974,51.0056248 20.3156768,51.0196882 20.3226849,51.0354062 C20.3729779,51.1466729 20.4294546,51.254217 20.4962372,51.3555566 C20.5003596,51.3617611 20.5053064,51.3650701 20.5094288,51.3716882 C20.5844562,51.4800595 20.6664916,51.58264 20.7592452,51.6740525 C20.7769715,51.6922523 20.7992324,51.7046612 20.8177831,51.7216201 C20.9002307,51.7985554 20.9835029,51.873009 21.077081,51.9354673 C21.1516961,51.9859303 21.234556,52.0235707 21.3149425,52.0657611 C21.3578153,52.0872699 21.3969779,52.1137423 21.4406752,52.1323557 C21.6995609,52.2436224 21.9831808,52.3056671 22.2828781,52.3052534 C22.2890617,52.3052534 22.2940085,52.3031853 22.2997799,52.3031853 L25.2922179,52.3052534 C26.4802887,52.3052534 27.4441019,51.3435613 27.4428652,50.152304 C27.4428652,48.9573239 26.4786398,47.9997681 25.2876832,47.9997681 L24.4335254,47.9997681 L24.4331132,41.2675096 C24.4421824,41.0879937 24.4347622,40.9051688 24.3993097,40.7277211 C24.2999602,40.1052064 23.9413129,39.5712088 23.4321985,39.2465084 L21.2766043,37.0836318 L23.7046881,34.6436224 C23.9512066,34.4231571 24.1511422,34.1514015 24.2756382,33.8382828 C24.3193354,33.7352887 24.3473676,33.6277446 24.3741631,33.5193733 C24.3786977,33.5003463 24.3857058,33.4825601 24.3910649,33.4635331 C24.4298153,33.2815354 24.4421824,33.0478339 24.4339377,32.8617 L24.4355866,26.0156929 L25.2897444,26.0156929 C26.4802887,26.0156929 27.4441019,25.0986729 27.4441019,23.9036929 C27.4449264,22.7124356 26.4815254,21.7681159 25.2938668,21.7681159 L22.2968942,21.7821794 C22.2927718,21.7821794 22.287825,21.7867293 22.2849393,21.7867293 C21.9856543,21.7863157 21.7016221,21.8508421 21.4427364,21.960868 C21.39368,21.9823768 21.348746,22.0150537 21.3017509,22.0398715 C21.2263113,22.0783392 21.1488105,22.1143251 21.0791422,22.1606518 C20.9855641,22.224351 20.9014675,22.2983909 20.819432,22.3749127 C20.8012936,22.3922852 20.7786204,22.405935 20.7608942,22.4237211 C20.6702018,22.5151336 20.5881663,22.6156459 20.5143757,22.7219491 C20.5090166,22.7302217 20.502833,22.7351853 20.4970617,22.7426306 C20.431928,22.8406612 20.3779248,22.9469644 20.3272195,23.0553357 C20.3185625,23.0743627 20.3057831,23.0913216 20.298775,23.1103486 C20.2592002,23.2013474 20.2348781,23.2985507 20.2097316,23.3953404 C20.1998378,23.4367035 20.1816993,23.4751712 20.1730423,23.5161206 C20.156965,23.5947105 20.1211003,23.6766095 20.1128555,23.7585084 C20.106672,23.8226212 20.0584401,23.8838386 20.0584401,23.9500196 L20.0584401,23.9570513 L20.0943048,32.122955 L16.7502275,35.4998386 C16.3190262,35.9333239 16.1199151,36.5033075 16.1314578,37.069982 C16.1137316,37.6457564 16.3264465,38.2273216 16.7634192,38.6649432 L16.7634192,38.6649432 Z" id="Shape" fill="#FFFFFF"></path>
                    <path d="M56.3863393,38.6649432 L53.0542169,42.0381042 L53.0904939,50.1423768 L53.0904939,50.1485813 C53.0904939,50.2110396 53.0426742,50.2693615 53.0369029,50.3301653 C53.0290704,50.4137188 53.0101074,50.5014085 52.9940301,50.5820666 C52.9857854,50.6192934 52.9618755,50.6527975 52.9519818,50.6883698 C52.9251863,50.790123 52.8950929,50.8935307 52.8546936,50.9886659 C52.846861,51.0056248 52.8340816,51.0196882 52.8270736,51.0354062 C52.7767805,51.1466729 52.7203039,51.254217 52.6535213,51.3555566 C52.6493989,51.3617611 52.644452,51.3650701 52.6403296,51.3716882 C52.5653023,51.4800595 52.4832668,51.58264 52.3905132,51.6740525 C52.372787,51.6922523 52.3505261,51.7046612 52.3319754,51.7216201 C52.2495277,51.7985554 52.1662556,51.873009 52.0726775,51.9354673 C51.9980623,51.9859303 51.9152024,52.0235707 51.8348159,52.0657611 C51.7919432,52.0872699 51.7527805,52.1137423 51.7090833,52.1323557 C51.4501976,52.2436224 51.1665776,52.3056671 50.8668804,52.3052534 C50.8606968,52.3052534 50.8557499,52.3031853 50.8499786,52.3031853 L47.8575406,52.3052534 C46.6694697,52.3052534 45.7056565,51.3435613 45.7068932,50.152304 C45.7068932,48.9573239 46.6711187,47.9997681 47.8620752,47.9997681 L48.716233,47.9997681 L48.7166453,41.2675096 C48.707576,41.0879937 48.7149963,40.9051688 48.7504488,40.7277211 C48.8497982,40.1052064 49.2084456,39.5712088 49.7175599,39.2465084 L51.8731541,37.0836318 L49.4450704,34.6436224 C49.1985519,34.4231571 48.9986163,34.1514015 48.8741203,33.8382828 C48.830423,33.7352887 48.8023908,33.6277446 48.7755953,33.5193733 C48.7710607,33.5003463 48.7640527,33.4825601 48.7586936,33.4635331 C48.7199432,33.2815354 48.707576,33.0478339 48.7158208,32.8617 L48.7141718,26.0156929 L47.860014,26.0156929 C46.6694697,26.0156929 45.7056565,25.0986729 45.7056565,23.9036929 C45.7048321,22.7124356 46.668233,21.7681159 47.8558916,21.7681159 L50.8528643,21.7821794 C50.8569866,21.7821794 50.8619335,21.7867293 50.8648192,21.7867293 C51.1641042,21.7863157 51.4481364,21.8508421 51.7070221,21.960868 C51.7560784,21.9823768 51.8010124,22.0150537 51.8480076,22.0398715 C51.9234472,22.0783392 52.000948,22.1143251 52.0706163,22.1606518 C52.1641944,22.224351 52.248291,22.2983909 52.3303264,22.3749127 C52.3484649,22.3922852 52.371138,22.405935 52.3888643,22.4237211 C52.4795567,22.5151336 52.5615921,22.6156459 52.6353828,22.7219491 C52.6407419,22.7302217 52.6469254,22.7351853 52.6526968,22.7426306 C52.7178304,22.8406612 52.7718337,22.9469644 52.822539,23.0553357 C52.831196,23.0743627 52.8439754,23.0913216 52.8509834,23.1103486 C52.8905583,23.2013474 52.9148804,23.2985507 52.9400269,23.3953404 C52.9499206,23.4367035 52.9680591,23.4751712 52.9767161,23.5161206 C52.9927934,23.5947105 53.0286581,23.6766095 53.0369029,23.7585084 C53.0430865,23.8226212 53.0913184,23.8838386 53.0913184,23.9500196 L53.0913184,23.9570513 L53.0554536,32.122955 L56.3995309,35.4998386 C56.8307322,35.9333239 57.0298433,36.5033075 57.0183007,37.069982 C57.0360269,37.6457564 56.8233119,38.2273216 56.3863393,38.6649432 L56.3863393,38.6649432 Z" id="Shape-2" fill="#FFFFFF"></path>
                </g>
            </g>
        </g>
    </g>
</svg>