<?xml version="1.0" encoding="UTF-8" standalone="no"?>
<svg width="50px" height="50px" viewBox="0 0 50 50" version="1.1" xmlns="http://www.w3.org/2000/svg" xmlns:xlink="http://www.w3.org/1999/xlink" xmlns:sketch="http://www.bohemiancoding.com/sketch/ns">
    <!-- Generator: Sketch 3.0.4 (8054) - http://www.bohemiancoding.com/sketch -->
    <title>80 - Spotlight</title>
    <desc>Created with Sketch.</desc>
    <defs></defs>
    <g id="Page-1" stroke="none" stroke-width="1" fill="none" fill-rule="evenodd" sketch:type="MSPage">
        <g id="80---Spotlight" sketch:type="MSArtboardGroup" fill="#FFFFFF">
            <g id="noun_54489_cc" sketch:type="MSLayerGroup" transform="translate(4.000000, 8.000000)">
                <path d="M17.7455625,35.3230769 C22.2347625,35.3230769 26.7239625,33.6113077 30.1413875,30.1877692 C30.666525,29.6622308 30.666525,28.8098462 30.1413875,28.2843077 C29.61625,27.7587692 28.765925,27.7582308 28.241325,28.2843077 C22.4529875,34.0813846 13.0370625,34.0808462 7.2498,28.2843077 C1.4625375,22.4861538 1.4625375,13.0528462 7.2498,7.25523077 C13.0376,1.45761538 22.453525,1.45761538 28.241325,7.25523077 C28.7664625,7.78130769 29.6167875,7.78130769 30.1413875,7.25523077 C30.666525,6.72969231 30.666525,5.87730769 30.1413875,5.35176923 C23.306,-1.49584615 12.1845875,-1.49584615 5.3497375,5.35176923 C-1.48565,12.1988462 -1.48565,23.3406923 5.3497375,30.1883077 C8.7671625,33.6113077 13.2563625,35.3230769 17.7455625,35.3230769 L17.7455625,35.3230769 Z" id="Shape" sketch:type="MSShapeGroup"></path>
                <path d="M41.586375,16.8161538 C41.5858375,16.8156154 41.5853,16.8156154 41.5853,16.8150769 L35.8646875,11.0842308 C35.33955,10.5581538 34.489225,10.5581538 33.964625,11.0842308 C33.4394875,11.6097692 33.4394875,12.4621538 33.964625,12.9876923 L37.393875,16.4230769 L17.7455625,16.4230769 C17.003275,16.4230769 16.4018125,17.0256154 16.4018125,17.7692308 C16.4018125,18.5128462 17.003275,19.1153846 17.7455625,19.1153846 L37.3933375,19.1153846 L33.9640875,22.5507692 C33.43895,23.0768462 33.43895,23.9286923 33.9640875,24.4542308 C34.2263875,24.717 34.5703875,24.8483846 34.9143875,24.8483846 C35.2583875,24.8483846 35.60185,24.717 35.8646875,24.4542308 L42.53775,17.7692308 L41.5879875,16.8177692 C41.58745,16.8172308 41.5869125,16.8166923 41.586375,16.8161538 L41.586375,16.8161538 Z" id="Shape" sketch:type="MSShapeGroup"></path>
            </g>
        </g>
    </g>
</svg>