<?xml version="1.0" encoding="UTF-8" standalone="no"?>
<svg width="243px" height="37px" viewBox="0 0 243 37" version="1.1" xmlns="http://www.w3.org/2000/svg" xmlns:xlink="http://www.w3.org/1999/xlink" xmlns:sketch="http://www.bohemiancoding.com/sketch/ns">
    <!-- Generator: Sketch 3.0.4 (8054) - http://www.bohemiancoding.com/sketch -->
    <title>logo + stockroom 2</title>
    <desc>Created with Sketch.</desc>
    <defs></defs>
    <g id="Page-1" stroke="none" stroke-width="1" fill="none" fill-rule="evenodd" sketch:type="MSPage">
        <g id="Desktop-HD" sketch:type="MSArtboardGroup" transform="translate(-598.000000, -2493.000000)">
            <g id="Group" sketch:type="MSLayerGroup" transform="translate(-1.000000, -4.000000)">
                <g>
                    <g id="Rectangle-39-+-bg" transform="translate(1.000000, 1575.000000)"></g>
                    <g id="logo-+-stockroom-2" transform="translate(599.000000, 2488.000000)">
                        <g id="logo" transform="translate(0.000000, 10.000000)" sketch:type="MSShapeGroup">
                            <rect id="Rectangle-27" stroke="#505050" stroke-width="2" x="0" y="0" width="36" height="36" rx="2"></rect>
                            <path d="M6.61692327,18.3740306 L8.49124212,20.2714336 L8.47083632,24.830087 L8.47083632,24.833577 C8.47083632,24.8687098 8.49773487,24.9015159 8.50098125,24.935718 C8.50538704,24.9827168 8.51605371,25.0320423 8.52509719,25.0774125 C8.52973487,25.0983525 8.54318414,25.1171986 8.54874936,25.137208 C8.56382183,25.1944442 8.58074936,25.252611 8.603474,25.3061246 C8.6078798,25.3156639 8.6150682,25.3235746 8.61901023,25.332416 C8.64730009,25.3950035 8.6790682,25.4554971 8.71663342,25.5125006 C8.71895226,25.5159906 8.72173487,25.5178519 8.72405371,25.5215746 C8.76625661,25.5825335 8.81240154,25.640235 8.86457545,25.6916545 C8.87454646,25.7018919 8.8870682,25.7088719 8.89750299,25.7184113 C8.9438798,25.7616874 8.99072038,25.8035676 9.04335806,25.8387004 C9.08532907,25.8670858 9.13193777,25.8882585 9.17715516,25.9119906 C9.2012711,25.9240893 9.22330009,25.93898 9.2478798,25.9494501 C9.39350299,26.0120376 9.55303922,26.0469377 9.72161893,26.0467051 C9.72509719,26.0467051 9.7278798,26.0455417 9.73112617,26.0455417 L11.4143726,26.0467051 C12.0826624,26.0467051 12.6248073,25.5057532 12.6241117,24.835671 C12.6241117,24.1634947 12.0817349,23.6248696 11.4118218,23.6248696 L10.9313581,23.6248696 L10.9311262,19.8379741 C10.9362276,19.7369965 10.9320537,19.6341575 10.9121117,19.5343431 C10.8562276,19.1841786 10.6544885,18.8838049 10.3681117,18.701161 L9.15558994,17.4845429 L10.521387,16.1120376 C10.6600537,15.9880259 10.7725175,15.8351633 10.8425465,15.6590341 C10.8671262,15.6010999 10.8828943,15.5406063 10.8979668,15.4796475 C10.9005175,15.4689448 10.9044595,15.4589401 10.907474,15.4482374 C10.9292711,15.3458637 10.9362276,15.2144066 10.9315899,15.1097062 L10.9325175,11.2588273 L11.4129812,11.2588273 C12.0826624,11.2588273 12.6248073,10.7430035 12.6248073,10.0708273 C12.6252711,9.40074501 12.0833581,8.86956522 11.4153001,8.86956522 L9.72950299,8.87747591 C9.72718414,8.87747591 9.72440154,8.88003525 9.72277835,8.88003525 C9.55443052,8.87980259 9.39466241,8.91609871 9.24903922,8.97798825 C9.22144501,8.99008696 9.19616965,9.00846769 9.16973487,9.02242773 C9.12730009,9.0440658 9.08370588,9.06430787 9.04451748,9.09036663 C8.9918798,9.12619741 8.94457545,9.16784489 8.89843052,9.21088837 C8.88822762,9.2206604 8.875474,9.22833843 8.86550299,9.23834313 C8.81448849,9.28976263 8.76834356,9.34630082 8.72683632,9.40609636 C8.72382183,9.41074971 8.72034356,9.41354172 8.71709719,9.41772973 C8.68045951,9.47287192 8.6500827,9.53266745 8.62156096,9.59362632 C8.61669139,9.60432902 8.60950299,9.61386839 8.60556096,9.62457109 C8.58330009,9.67575793 8.56961893,9.73043478 8.555474,9.78487897 C8.54990878,9.80814571 8.53970588,9.82978378 8.53483632,9.85281786 C8.52579284,9.89702468 8.50561893,9.94309283 8.50098125,9.98916099 C8.49750299,10.0252244 8.47037255,10.0596592 8.47037255,10.096886 L8.47037255,10.1008414 L8.49054646,14.6941622 L6.60950299,16.5936592 C6.36695226,16.8374947 6.25495226,17.1581105 6.26144501,17.4768649 C6.251474,17.800738 6.37112617,18.1278684 6.61692327,18.3740306 L6.61692327,18.3740306 Z" id="Shape" fill="#505050"></path>
                            <path d="M28.9048159,18.3740306 L27.030497,20.2714336 L27.0509028,24.830087 L27.0509028,24.833577 C27.0509028,24.8687098 27.0240043,24.9015159 27.0207579,24.935718 C27.0163521,24.9827168 27.0056854,25.0320423 26.9966419,25.0774125 C26.9920043,25.0983525 26.978555,25.1171986 26.9729898,25.137208 C26.9579173,25.1944442 26.9409898,25.252611 26.9182651,25.3061246 C26.9138593,25.3156639 26.9066709,25.3235746 26.9027289,25.332416 C26.874439,25.3950035 26.8426709,25.4554971 26.8051057,25.5125006 C26.8027869,25.5159906 26.8000043,25.5178519 26.7976854,25.5215746 C26.7554825,25.5825335 26.7093376,25.640235 26.6571637,25.6916545 C26.6471927,25.7018919 26.6346709,25.7088719 26.6242361,25.7184113 C26.5778593,25.7616874 26.5310188,25.8035676 26.4783811,25.8387004 C26.4364101,25.8670858 26.3898014,25.8882585 26.344584,25.9119906 C26.320468,25.9240893 26.298439,25.93898 26.2738593,25.9494501 C26.1282361,26.0120376 25.9686999,26.0469377 25.8001202,26.0467051 C25.7966419,26.0467051 25.7938593,26.0455417 25.790613,26.0455417 L24.1073666,26.0467051 C23.4390767,26.0467051 22.8969318,25.5057532 22.8976274,24.835671 C22.8976274,24.1634947 23.4400043,23.6248696 24.1099173,23.6248696 L24.5903811,23.6248696 L24.590613,19.8379741 C24.5855115,19.7369965 24.5896854,19.6341575 24.6096274,19.5343431 C24.6655115,19.1841786 24.8672506,18.8838049 25.1536274,18.701161 L26.3661492,17.4845429 L25.0003521,16.1120376 C24.8616854,15.9880259 24.7492217,15.8351633 24.6791927,15.6590341 C24.654613,15.6010999 24.6388448,15.5406063 24.6237724,15.4796475 C24.6212217,15.4689448 24.6172796,15.4589401 24.6142651,15.4482374 C24.592468,15.3458637 24.5855115,15.2144066 24.5901492,15.1097062 L24.5892217,11.2588273 L24.1087579,11.2588273 C23.4390767,11.2588273 22.8969318,10.7430035 22.8969318,10.0708273 C22.896468,9.40074501 23.4383811,8.86956522 24.106439,8.86956522 L25.7922361,8.87747591 C25.794555,8.87747591 25.7973376,8.88003525 25.7989608,8.88003525 C25.9673086,8.87980259 26.1270767,8.91609871 26.2726999,8.97798825 C26.3002941,8.99008696 26.3255695,9.00846769 26.3520043,9.02242773 C26.394439,9.0440658 26.4380332,9.06430787 26.4772217,9.09036663 C26.5298593,9.12619741 26.5771637,9.16784489 26.6233086,9.21088837 C26.6335115,9.2206604 26.6462651,9.22833843 26.6562361,9.23834313 C26.7072506,9.28976263 26.7533956,9.34630082 26.7949028,9.40609636 C26.7979173,9.41074971 26.8013956,9.41354172 26.8046419,9.41772973 C26.8412796,9.47287192 26.8716564,9.53266745 26.9001782,9.59362632 C26.9050477,9.60432902 26.9122361,9.61386839 26.9161782,9.62457109 C26.938439,9.67575793 26.9521202,9.73043478 26.9662651,9.78487897 C26.9718303,9.80814571 26.9820332,9.82978378 26.9869028,9.85281786 C26.9959463,9.89702468 27.0161202,9.94309283 27.0207579,9.98916099 C27.0242361,10.0252244 27.0513666,10.0596592 27.0513666,10.096886 L27.0513666,10.1008414 L27.0311927,14.6941622 L28.9122361,16.5936592 C29.1547869,16.8374947 29.2667869,17.1581105 29.2602941,17.4768649 C29.2702651,17.800738 29.150613,18.1278684 28.9048159,18.3740306 L28.9048159,18.3740306 Z" id="Shape-2" fill="#505050"></path>
                        </g>
                        <text id="stockroom" sketch:type="MSTextLayer" font-family="Avenir" font-size="40" font-weight="686" fill="#4F4F4F">
                            <tspan x="48" y="40">stockroom</tspan>
                        </text>
                    </g>
                </g>
            </g>
        </g>
    </g>
</svg>