<?xml version="1.0" encoding="UTF-8" standalone="no"?>
<svg width="164px" height="209px" viewBox="0 0 164 209" version="1.1" xmlns="http://www.w3.org/2000/svg" xmlns:xlink="http://www.w3.org/1999/xlink" xmlns:sketch="http://www.bohemiancoding.com/sketch/ns">
    <!-- Generator: Sketch 3.3 (11970) - http://www.bohemiancoding.com/sketch -->
    <title>Group</title>
    <desc>Created with Sketch.</desc>
    <defs></defs>
    <g id="Page-1" stroke="none" stroke-width="1" fill="none" fill-rule="evenodd" sketch:type="MSPage">
        <g id="Desktop-HD-2-Copy-2" sketch:type="MSArtboardGroup" transform="translate(-618.000000, -965.000000)" fill="#D3D3D3">
            <g id="Group" sketch:type="MSLayerGroup" transform="translate(618.000000, 965.000000)">
                <path d="M68.3472,122.341553 C67.0872,123.238395 66.8016,124.992842 67.7032,126.248421 C68.252,127.016342 69.1088,127.419921 69.9824,127.419921 C70.548,127.419921 71.1192,127.251763 71.612,126.893026 C81.5576,119.768737 92.0352,126.635184 92.4776,126.937868 C93.76,127.795474 95.5016,127.464763 96.3584,126.181158 C97.2208,124.903158 96.896,123.171132 95.6192,122.302316 C95.0424,121.904342 81.5016,112.885474 68.3472,122.341553 L68.3472,122.341553 Z" id="Shape" sketch:type="MSShapeGroup"></path>
                <path d="M113.7968,100.873395 C101.7344,101.501184 96.5488,89.9375263 96.3416,89.4442632 C95.7368,88.0149211 94.0848,87.3591053 92.6736,87.9532632 C91.2512,88.5530263 90.5848,90.1841579 91.1784,91.6135 C91.436,92.2356842 97.568,106.495474 112.9176,106.495474 C113.2872,106.495474 113.668,106.489868 114.0488,106.473053 C115.5888,106.405789 116.7872,105.094158 116.72,103.547105 C116.6472,102.005658 115.4488,100.755684 113.7968,100.873395 L113.7968,100.873395 Z" id="Shape" sketch:type="MSShapeGroup"></path>
                <path d="M72.8328,91.6191053 C73.4264,90.1897632 72.7544,88.5474211 71.3264,87.9532632 C69.8984,87.3535 68.2576,88.0261316 67.664,89.4610789 C67.6136,89.5843947 62.6016,101.568447 50.2088,100.879 C48.6464,100.817342 47.3584,102.005658 47.2856,103.552711 C47.2184,105.099763 48.4112,106.411395 49.9568,106.478658 C50.3376,106.495474 50.7184,106.501079 51.088,106.501079 C66.4376,106.495474 72.5696,92.2412895 72.8328,91.6191053 L72.8328,91.6191053 Z" id="Shape" sketch:type="MSShapeGroup"></path>
                <path d="M163.7432,81.8771579 C163.7432,36.7603947 127.0744,0.0515263158 82,0.0515263158 C36.9256,0.0515263158 0.2568,36.7547895 0.2568,81.8771579 C0.2568,115.626447 20.7864,144.656105 49.996,157.150237 C52.404,180.854895 45.5048,204.789368 45.432,205.030395 C44.9952,206.521395 45.8408,208.074053 47.3248,208.511263 C47.588,208.589737 47.8568,208.628974 48.12,208.628974 C49.3296,208.628974 50.444,207.838632 50.8024,206.622289 C51.0992,205.618947 57.5952,183.147447 55.82,159.319474 C64.052,162.110895 72.8384,163.697184 82,163.697184 C91.1616,163.697184 99.9424,162.1165 108.1744,159.319474 C106.4104,183.147447 112.8952,205.624553 113.192,206.622289 C113.5448,207.844237 114.6704,208.628974 115.8744,208.628974 C116.1376,208.628974 116.4008,208.589737 116.6696,208.511263 C118.1536,208.074053 118.9992,206.521395 118.5624,205.030395 C118.4896,204.789368 111.6016,180.894132 114.004,157.150237 C143.2136,144.656105 163.7432,115.620842 163.7432,81.8771579 L163.7432,81.8771579 Z M5.8568,81.8771579 C5.8568,39.8488947 40.0168,5.65678947 82,5.65678947 C123.9832,5.65678947 158.1432,39.8488947 158.1432,81.8771579 C158.1432,123.899816 123.9832,158.086316 82,158.086316 C40.0168,158.086316 5.8568,123.899816 5.8568,81.8771579 L5.8568,81.8771579 Z" id="Shape" sketch:type="MSShapeGroup"></path>
            </g>
        </g>
    </g>
</svg>