<?xml version="1.0" encoding="UTF-8" standalone="no"?>
<svg width="30px" height="30px" viewBox="0 0 30 30" version="1.1" xmlns="http://www.w3.org/2000/svg" xmlns:xlink="http://www.w3.org/1999/xlink" xmlns:sketch="http://www.bohemiancoding.com/sketch/ns">
    <!-- Generator: Sketch 3.0.4 (8054) - http://www.bohemiancoding.com/sketch -->
    <title>80 - Spotlight</title>
    <desc>Created with Sketch.</desc>
    <defs></defs>
    <g id="Page-1" stroke="none" stroke-width="1" fill="none" fill-rule="evenodd" sketch:type="MSPage">
        <g id="80---Spotlight" sketch:type="MSArtboardGroup" fill="#444444">
            <path d="M26.9712731,12.12325 C26.8775231,11.841 26.5920231,11.6905 26.3325231,11.78575 L19.3237731,10.84475 L15.4190231,3.52075 C15.4190231,3.23275 15.1880231,3 14.9050231,3 C14.6220231,3 14.3910231,3.23275 14.3910231,3.52075 L10.4735231,10.87175 L3.66827307,11.786 C3.40877307,11.6905 3.12227307,11.84125 3.02852307,12.1235 C2.93752307,12.40375 3.07127307,12.70675 3.33002307,12.80225 L8.72902307,18.59575 L7.35952307,26.14775 C7.19377307,26.378 7.24052307,26.7075 7.46677307,26.8885 C7.69177307,27.0685 8.01177307,27.0275 8.17652307,26.799 L14.9040231,23.32275 L21.6315231,26.799 C21.7965231,27.0275 22.1137731,27.0685 22.3387731,26.8885 C22.5665231,26.7075 22.6142731,26.378 22.4482731,26.14775 L21.1082731,18.7705 L26.6705231,12.80225 C26.9295231,12.7065 27.0632731,12.4035 26.9712731,12.12325 L26.9712731,12.12325 Z" id="Shape-2" sketch:type="MSShapeGroup"></path>
        </g>
    </g>
</svg>