<?xml version="1.0" encoding="UTF-8" standalone="no"?>
<svg width="412px" height="412px" viewBox="0 0 412 412" version="1.1" xmlns="http://www.w3.org/2000/svg" xmlns:xlink="http://www.w3.org/1999/xlink" xmlns:sketch="http://www.bohemiancoding.com/sketch/ns">
    <!-- Generator: Sketch 3.0.4 (8054) - http://www.bohemiancoding.com/sketch -->
    <title>iconmonstr-time-icon 2</title>
    <desc>Created with Sketch.</desc>
    <defs></defs>
    <g id="Page-1" stroke="none" stroke-width="1" fill="none" fill-rule="evenodd" sketch:type="MSPage">
        <path d="M317,245.5 L177.5,245.5 L177.5,92 L222.5,92 L222.5,200.5 L317,200.5 L317,245.5 L317,245.5 Z M206,45 C117.008,45 45,117.022 45,206 C45,294.992 117.023,367 206,367 C294.992,367 367,294.977 367,206 C367,117.007 294.977,45 206,45 L206,45 Z M206,0 C319.771,0 412,92.229 412,206 C412,319.771 319.771,412 206,412 C92.229,412 0,319.771 0,206 C0,92.229 92.229,0 206,0 L206,0 Z" id="time-icon" fill="#FFFFFF" sketch:type="MSShapeGroup"></path>
    </g>
</svg>